<?xml version="1.0" encoding="UTF-8"?>
<svg xmlns="http://www.w3.org/2000/svg" width="300" height="480" viewBox="0 0 300 480">
  <rect width="300" height="480" fill="#FAFAF8"/>
  <rect x="12" y="12" width="276" height="456" fill="none" stroke="#111" stroke-width="1.5"/>
  <rect x="20" y="20" width="260" height="440" fill="none" stroke="#111" stroke-width="0.5"/>
  <g transform="translate(75, 70) scale(1.5)">
    <path d="M26 22 H44 V36 Q44 44 35 48 Q26 44 26 36 Z" fill="none" stroke="#111111" stroke-width="1.4"/>
    <path d="M56 22 H74 V36 Q74 44 65 48 Q56 44 56 36 Z" fill="none" stroke="#111111" stroke-width="1.4"/>
    <path d="M26 56 H44 V70 Q44 78 35 82 Q26 78 26 70 Z" fill="none" stroke="#111111" stroke-width="1.4"/>
    <path d="M56 56 H74 V70 Q74 78 65 82 Q56 78 56 70 Z" fill="none" stroke="#111111" stroke-width="1.4"/>
  </g>
  <text x="150" y="310" text-anchor="middle" font-family="Georgia, serif" font-size="14" fill="#111">26</text>
  <text x="150" y="345" text-anchor="middle" font-family="Georgia, serif" font-size="18" fill="#111">Four of Cups</text>
  <line x1="60" y1="400" x2="240" y2="400" stroke="#D8D8D8" stroke-width="1"/>
  <circle cx="150" cy="420" r="3" fill="#111"/>
</svg>