<?xml version="1.0" encoding="UTF-8"?>
<svg xmlns="http://www.w3.org/2000/svg" width="300" height="480" viewBox="0 0 300 480">
  <rect width="300" height="480" fill="#FAFAF8"/>
  <rect x="12" y="12" width="276" height="456" fill="none" stroke="#111" stroke-width="1.5"/>
  <rect x="20" y="20" width="260" height="440" fill="none" stroke="#111" stroke-width="0.5"/>
  <g transform="translate(75, 70) scale(1.5)">
    <g stroke="#111111">
      <line x1="20" y1="22" x2="80" y2="22"/><line x1="20" y1="30" x2="80" y2="30"/>
      <line x1="20" y1="38" x2="80" y2="38"/><line x1="20" y1="46" x2="80" y2="46"/>
      <line x1="20" y1="54" x2="80" y2="54"/><line x1="20" y1="62" x2="80" y2="62"/>
      <line x1="20" y1="70" x2="80" y2="70"/><line x1="20" y1="78" x2="80" y2="78"/>
      <line x1="50" y1="18" x2="50" y2="82" stroke-width="1.5"/>
    </g>
  </g>
  <text x="150" y="310" text-anchor="middle" font-family="Georgia, serif" font-size="14" fill="#111">59</text>
  <text x="150" y="345" text-anchor="middle" font-family="Georgia, serif" font-size="18" fill="#111">Nine of Swords</text>
  <line x1="60" y1="400" x2="240" y2="400" stroke="#D8D8D8" stroke-width="1"/>
  <circle cx="150" cy="420" r="3" fill="#111"/>
</svg>