<?xml version="1.0" encoding="UTF-8"?>
<svg xmlns="http://www.w3.org/2000/svg" width="300" height="480" viewBox="0 0 300 480">
  <rect width="300" height="480" fill="#FAFAF8"/>
  <rect x="12" y="12" width="276" height="456" fill="none" stroke="#111" stroke-width="1.5"/>
  <rect x="20" y="20" width="260" height="440" fill="none" stroke="#111" stroke-width="0.5"/>
  <g transform="translate(75, 70) scale(1.5)">
    <path d="M20 62 Q50 48 80 62" fill="none" stroke="#111111" stroke-width="1.5"/>
    <path d="M28 62 L50 30 L72 62" fill="none" stroke="#111111"/>
    <g stroke="#111111">
      <line x1="38" y1="40" x2="38" y2="58"/><line x1="44" y1="36" x2="44" y2="58"/>
      <line x1="50" y1="32" x2="50" y2="58"/><line x1="56" y1="36" x2="56" y2="58"/>
      <line x1="62" y1="40" x2="62" y2="58"/><line x1="68" y1="44" x2="68" y2="58"/>
    </g>
  </g>
  <text x="150" y="310" text-anchor="middle" font-family="Georgia, serif" font-size="14" fill="#111">56</text>
  <text x="150" y="345" text-anchor="middle" font-family="Georgia, serif" font-size="18" fill="#111">Six of Swords</text>
  <line x1="60" y1="400" x2="240" y2="400" stroke="#D8D8D8" stroke-width="1"/>
  <circle cx="150" cy="420" r="3" fill="#111"/>
</svg>